<?xml version="1.0" standalone="no"?>
<!DOCTYPE svg PUBLIC "-//W3C//DTD SVG 20010904//EN"
 "http://www.w3.org/TR/2001/REC-SVG-20010904/DTD/svg10.dtd">
<svg version="1.0" xmlns="http://www.w3.org/2000/svg"
 width="1080.000000pt" height="1080.000000pt" viewBox="0 0 1080.000000 1080.000000"
 preserveAspectRatio="xMidYMid meet">
<metadata>
Created by potrace 1.11, written by Peter Selinger 2001-2013
</metadata>
<g transform="translate(0.000000,1080.000000) scale(0.100000,-0.100000)"
fill="#000000" stroke="none">
<path d="M2600 5400 l0 -5400 2800 0 2800 0 0 5400 0 5400 -2800 0 -2800 0 0
-5400z m4028 3470 l-3 -251 -98 -39 c-264 -106 -623 -317 -845 -497 -123 -99
-308 -283 -396 -393 -196 -247 -405 -598 -501 -840 -103 -262 -185 -735 -185
-1066 l0 -104 670 0 670 0 0 -270 0 -270 -670 0 -670 0 0 -1254 0 -1253 -77
-51 c-106 -69 -150 -87 -276 -111 -59 -12 -112 -21 -116 -21 -12 0 -22 2884
-11 3200 20 550 57 831 155 1172 81 285 176 504 320 743 395 657 1018 1216
1581 1421 122 44 413 133 437 134 16 0 17 -17 15 -250z m0 -927 l-3 -428 -235
0 -235 0 -3 312 -2 312 54 43 c30 24 79 58 109 76 54 33 266 112 300 112 16 0
17 -25 15 -427z m-3 -1973 c0 -1482 1 -1446 -60 -1756 -88 -440 -279 -893
-521 -1231 -291 -405 -839 -821 -1554 -1179 -163 -82 -363 -174 -375 -174 -3
0 -5 137 -5 304 l0 305 58 16 c426 118 893 398 1240 744 373 371 619 887 727
1526 l25 147 0 1329 0 1329 233 -2 232 -3 0 -1355z"/>
</g>
</svg>
