<svg width="40" height="80" viewBox="0 0 40 80" fill="none" xmlns="http://www.w3.org/2000/svg">
<rect width="40" height="80" fill="#2D3152"/>
<path fill-rule="evenodd" clip-rule="evenodd" d="M25.4361 25.7227H28.7573V44.6868C28.7573 44.6868 28.9553 51.0864 24.9329 57.4074C20.9106 63.7284 10.7998 67.9402 10.7998 67.9402V63.4073C10.7998 63.4073 15.9368 62.2943 20.4349 57.4074C24.9329 52.5204 25.4361 45.0902 25.4361 45.0902V25.7227Z" fill="white"/>
<path fill-rule="evenodd" clip-rule="evenodd" d="M28.7751 24.3362H25.3877V19.6773C25.3877 19.6773 26.238 18.9548 26.8322 18.651C27.4263 18.3471 28.7751 17.9448 28.7751 17.9448V24.3362Z" fill="white"/>
<path fill-rule="evenodd" clip-rule="evenodd" d="M28.7753 12.3999V16.1534C28.7753 16.1534 22.5849 18.2905 18.8187 23.5256C17.5304 25.3164 15.8849 28.0365 15.2699 30.2618C14.9446 31.4389 14.6276 32.884 14.4337 34.5401C14.2626 36.0022 14.2626 37.9591 14.2626 37.9591H23.8527V41.9413H14.2626V60.4933C14.2626 60.4933 13.3699 61.2046 12.7633 61.4455C12.1567 61.6865 10.8288 61.8573 10.8288 61.8573C10.8288 61.8573 10.8415 52.6611 10.8288 48.6079C10.8111 42.9515 10.7049 38.4156 11.0527 34.5401C11.2973 31.8148 11.7822 29.87 12.404 27.9804C14.1621 22.6375 19.1673 16.4046 24.6291 13.8138C25.9094 13.2065 28.7753 12.3999 28.7753 12.3999Z" fill="white"/>
</svg>
