<svg width="70" height="135" viewBox="0 0 70 135" fill="none" xmlns="http://www.w3.org/2000/svg">
<rect width="70" height="135" fill="#2D3152"/>
<path fill-rule="evenodd" clip-rule="evenodd" d="M44.5159 43.4067H50.328V75.4088C50.328 75.4088 50.6744 86.208 43.6353 96.8747C36.5962 107.541 18.9023 114.649 18.9023 114.649V107C18.9023 107 27.892 105.121 35.7637 96.8747C43.6353 88.628 44.5159 76.0895 44.5159 76.0895V43.4067Z" fill="white"/>
<path fill-rule="evenodd" clip-rule="evenodd" d="M50.3582 41.0672H44.4302V33.2053C44.4302 33.2053 45.9183 31.9862 46.958 31.4734C47.9978 30.9606 50.3582 30.2817 50.3582 30.2817V41.0672Z" fill="white"/>
<path fill-rule="evenodd" clip-rule="evenodd" d="M50.3594 20.9243V27.2583C50.3594 27.2583 39.5263 30.8647 32.9355 39.699C30.6809 42.721 27.8013 47.3111 26.725 51.0663C26.1557 53.0526 25.601 55.4913 25.2617 58.2858C24.9622 60.7532 24.9622 64.0555 24.9622 64.0555H41.745V70.7754H24.9622V102.082C24.9622 102.082 23.4001 103.282 22.3385 103.689C21.2769 104.095 18.9531 104.384 18.9531 104.384C18.9531 104.384 18.9753 88.865 18.9531 82.0253C18.9222 72.4802 18.7363 64.8259 19.345 58.2858C19.773 53.687 20.6215 50.4051 21.7097 47.2163C24.7864 38.2002 33.5455 27.6823 43.1037 23.3103C45.3441 22.2855 50.3594 20.9243 50.3594 20.9243Z" fill="white"/>
</svg>
